

<svg version="1.1" id="Layer_1" xmlns="http://www.w3.org/2000/svg" xmlns:xlink="http://www.w3.org/1999/xlink"
   viewBox="0 0 612 792" style="enable-background:new 0 0 612 792; width:40%" xml:space="preserve">
<style type="text/css">
  .st0{fill:none;stroke:black;stroke-width:5;stroke-miterlimit:10;}
</style>




<defs>
  <style>
      .st0{
        stroke-dasharray: 1400;
        stroke-dashoffset:0;
        -webkit-animation: dash 2s linear forwards;
        -o-animation: dash 2s linear forwards;
        -moz-animation: dash 2s linear forwards;
        animation: dash 2s linear forwards;
      }

    @-webkit-keyframes dash {
        from {
            stroke-dashoffset: 1400;
        }

        to {
            stroke-dashoffset: 0;
        }
    }

  </style>
</defs>


<path class="st0" d="M151.5,247c-1,67.3-1.9,134.7-2.9,202c-1.3-23.4-2.5-46.9-0.4-70.3s7.6-46.7,19-67.2c1.2-2.2,2.6-4.5,4.6-6
  c4.5-3.4,11.1-2.4,15.6,1.1c4.4,3.4,6.9,8.8,8.6,14.1c4.4,14,4.1,29,3.8,43.7c-0.4,18.1-0.8,36.2-1.2,54.3c-0.1,4.4-0.1,9.1,2,13
  c3.9,7.3,14.3,9.1,21.9,5.6c7.5-3.5,12.5-10.9,15.9-18.4c5.9-12.9,8.3-27.1,10.7-41.1c3.4-20.4,6.9-40.8,10.2-61.2
  c1.2-7.2,1.5-16.4-4.9-19.9c-6.4-3.5-14.3,1.9-18.1,8c-3.5,5.5-5.5,11.9-7,18.2c-5.7,24.7-3.1,51.1,7,74.3c4,9.1,9.4,18,17.5,23.7
  s19.5,7.7,28.1,2.8c8.4-4.8,12.5-14.7,14.5-24.2c2.4-11.4,2.7-23.1,3-34.8c0.7-30.3,1.5-60.6,1.8-90.9c0.1-10.6,0-21.7-5.3-30.9
  c-1.1,7.6-7.8,12.8-12.3,19c-8.8,12.3-8.6,28.7-8,43.8c1.4,37,3.3,75.8,22.6,107.4c0.8,1.3,1.7,2.6,3.1,3c-1.3-1.7,1-4.5,2.9-3.7"/>
</svg>